<?xml version="1.0" encoding="UTF-8" standalone="no"?>
<!-- Created with Inkscape (http://www.inkscape.org/) -->

<svg
   xmlns:dc="http://purl.org/dc/elements/1.1/"
   xmlns:cc="http://creativecommons.org/ns#"
   xmlns:rdf="http://www.w3.org/1999/02/22-rdf-syntax-ns#"
   xmlns:svg="http://www.w3.org/2000/svg"
   xmlns="http://www.w3.org/2000/svg"
   xmlns:sodipodi="http://sodipodi.sourceforge.net/DTD/sodipodi-0.dtd"
   xmlns:inkscape="http://www.inkscape.org/namespaces/inkscape"
   width="760"
   height="380"
   viewBox="0 0 201.08332 100.54167"
   version="1.1"
   id="svg4558"
   inkscape:version="0.92.1 r15371"
   sodipodi:docname="cvOSCcv.svg">
  <defs
     id="defs4552" />
  <sodipodi:namedview
     id="base"
     pagecolor="#ffffff"
     bordercolor="#666666"
     borderopacity="1.0"
     inkscape:pageopacity="0.0"
     inkscape:pageshadow="2"
     inkscape:zoom="1"
     inkscape:cx="281.19213"
     inkscape:cy="152.66454"
     inkscape:document-units="px"
     inkscape:current-layer="layer1"
     showgrid="false"
     units="px"
     inkscape:showpageshadow="false"
     inkscape:pagecheckerboard="false"
     inkscape:window-width="1920"
     inkscape:window-height="1057"
     inkscape:window-x="-8"
     inkscape:window-y="-8"
     inkscape:window-maximized="1"
     showguides="true"
     inkscape:guide-bbox="true">
    <inkscape:grid
       type="xygrid"
       id="grid5103"
       units="px" />
    <sodipodi:guide
       position="5.2916666,124.41396"
       orientation="1,0"
       id="guide5208"
       inkscape:locked="false"
       inkscape:label=""
       inkscape:color="rgb(0,0,255)" />
  </sodipodi:namedview>
  <metadata
     id="metadata4555">
    <rdf:RDF>
      <cc:Work
         rdf:about="">
        <dc:format>image/svg+xml</dc:format>
        <dc:type
           rdf:resource="http://purl.org/dc/dcmitype/StillImage" />
        <dc:title />
      </cc:Work>
    </rdf:RDF>
  </metadata>
  <g
     inkscape:groupmode="layer"
     id="layer2"
     inkscape:label="Layer 2">
    <rect
       style="fill:#646464;fill-opacity:1;fill-rule:nonzero;stroke:none;stroke-width:0.26458332;stroke-linejoin:miter;stroke-miterlimit:4;stroke-dasharray:none;stroke-dashoffset:0;stroke-opacity:1"
       id="rect5123"
       width="201.08333"
       height="100.54166"
       x="0"
       y="5.3125e-008" />
    <path
       style="fill:none;stroke:#1e1e1e;stroke-width:0.26458332px;stroke-linecap:butt;stroke-linejoin:miter;stroke-opacity:1"
       d="m 0,3.96875 c 31.088542,0 201.08333,0 201.08333,0"
       id="path5125"
       inkscape:connector-curvature="0" />
    <path
       style="fill:none;stroke:#656565;stroke-width:0.26458332px;stroke-linecap:butt;stroke-linejoin:miter;stroke-opacity:1"
       d="m 0,96.572915 c 31.08854,0 201.08333,0 201.08333,0"
       id="path5125-2"
       inkscape:connector-curvature="0" />
  </g>
  <g
     inkscape:label="Layer 1"
     inkscape:groupmode="layer"
     id="layer1"
     transform="translate(0,-196.45832)"
     style="display:inline">
    <rect
       style="fill:#000000;fill-opacity:1;fill-rule:nonzero;stroke:none;stroke-width:0.26458332;stroke-linejoin:miter;stroke-miterlimit:4;stroke-dasharray:none;stroke-dashoffset:0;stroke-opacity:1"
       id="rect5105"
       width="201.08333"
       height="3.9687569"
       x="0"
       y="196.45831" />
    <rect
       style="fill:#000000;fill-opacity:0.93969852;fill-rule:nonzero;stroke:none;stroke-width:0.26458332;stroke-linejoin:miter;stroke-miterlimit:4;stroke-dasharray:none;stroke-dashoffset:0;stroke-opacity:1"
       id="rect5105-6"
       width="201.08333"
       height="3.9687569"
       x="-1.4210855e-014"
       y="293.03125" />
    <g
       aria-label="trowaSoft"
       style="font-style:normal;font-variant:normal;font-weight:normal;font-stretch:normal;font-size:4.58611107px;line-height:1.25;font-family:Arial;-inkscape-font-specification:Arial;letter-spacing:0px;word-spacing:0px;fill:#c8c8c8;fill-opacity:1;stroke:none;stroke-width:0.26458332"
       id="text4544-0-8">
      <path
         d="m 6.3468814,293.42659 v 0.69591 h 0.3858507 v 0.51159 H 6.3468814 v 0.6494 q 0,0.11714 0.022393,0.15503 0.034451,0.0586 0.1205783,0.0586 0.077515,0 0.2170411,-0.0448 l 0.051676,0.48404 q -0.2601047,0.0568 -0.4857585,0.0568 -0.2618272,0 -0.3858507,-0.0672 -0.1240234,-0.0672 -0.1843126,-0.20327 -0.058567,-0.1378 -0.058567,-0.44441 v -0.64424 H 5.3856997 v -0.51159 h 0.2583822 v -0.3359 z"
         style="font-style:normal;font-variant:normal;font-weight:900;font-stretch:normal;font-size:3.52777791px;font-family:Arial;-inkscape-font-specification:'Arial Heavy';fill:#c8c8c8;fill-opacity:1;stroke-width:0.26458332"
         id="path5280"
         inkscape:connector-curvature="0" />
      <path
         d="m 7.072074,294.1225 h 0.6562908 v 0.29972 q 0.09474,-0.19465 0.1946479,-0.26699 0.1016303,-0.0741 0.2497694,-0.0741 0.1550293,0 0.3393419,0.0965 l -0.217041,0.49954 q -0.1240235,-0.0517 -0.1963705,-0.0517 -0.1378038,0 -0.2135959,0.11369 -0.1085205,0.1602 -0.1085205,0.59945 v 0.61322 H 7.072074 Z"
         style="font-style:normal;font-variant:normal;font-weight:900;font-stretch:normal;font-size:3.52777791px;font-family:Arial;-inkscape-font-specification:'Arial Heavy';fill:#c8c8c8;fill-opacity:1;stroke-width:0.26458332"
         id="path5282"
         inkscape:connector-curvature="0" />
      <path
         d="m 8.5982516,295.04234 q 0,-0.41858 0.2824978,-0.68902 0.2824978,-0.27216 0.7630887,-0.27216 0.5494929,0 0.8302679,0.31867 0.225654,0.25666 0.225654,0.63217 0,0.42203 -0.280775,0.69247 -0.279053,0.26871 -0.7734244,0.26871 -0.4409722,0 -0.7131348,-0.22393 -0.3341742,-0.27733 -0.3341742,-0.72691 z m 0.7027995,-0.002 q 0,0.2446 0.098185,0.36173 0.099908,0.11713 0.2497694,0.11713 0.1515842,0 0.2480469,-0.11541 0.098185,-0.11541 0.098185,-0.37034 0,-0.23772 -0.098185,-0.35313 -0.098185,-0.11713 -0.2428792,-0.11713 -0.1533068,0 -0.2532146,0.11886 -0.099908,0.11713 -0.099907,0.35829 z"
         style="font-style:normal;font-variant:normal;font-weight:900;font-stretch:normal;font-size:3.52777791px;font-family:Arial;-inkscape-font-specification:'Arial Heavy';fill:#c8c8c8;fill-opacity:1;stroke-width:0.26458332"
         id="path5284"
         inkscape:connector-curvature="0" />
      <path
         d="m 10.772107,294.1225 h 0.678684 l 0.294555,1.15238 0.372071,-1.15238 h 0.632175 l 0.38585,1.15238 0.294556,-1.15238 h 0.673516 l -0.673516,1.82934 h -0.623562 l -0.370348,-1.1007 -0.35829,1.1007 h -0.627007 z"
         style="font-style:normal;font-variant:normal;font-weight:900;font-stretch:normal;font-size:3.52777791px;font-family:Arial;-inkscape-font-specification:'Arial Heavy';fill:#c8c8c8;fill-opacity:1;stroke-width:0.26458332"
         id="path5286"
         inkscape:connector-curvature="0" />
      <path
         d="m 14.904499,294.71505 -0.670071,-0.0706 q 0.0379,-0.1757 0.10852,-0.27561 0.07235,-0.10163 0.206706,-0.1757 0.09646,-0.0534 0.265272,-0.0827 0.16881,-0.0293 0.365181,-0.0293 0.315226,0 0.506429,0.0362 0.191202,0.0344 0.318671,0.14642 0.08957,0.0775 0.141249,0.22048 0.05168,0.14125 0.05168,0.27044 v 0.80788 q 0,0.12919 0.0155,0.20326 0.01723,0.0724 0.07235,0.18603 h -0.658013 q -0.03962,-0.0706 -0.05168,-0.10679 -0.01206,-0.0379 -0.02412,-0.11714 -0.137804,0.13264 -0.273885,0.18948 -0.186035,0.0758 -0.43236,0.0758 -0.327284,0 -0.497816,-0.15158 -0.16881,-0.15158 -0.16881,-0.37379 0,-0.20843 0.122301,-0.34279 0.122301,-0.13436 0.451308,-0.19982 0.394463,-0.0792 0.511596,-0.11024 0.117134,-0.0327 0.248047,-0.0844 0,-0.12919 -0.0534,-0.18087 -0.0534,-0.0517 -0.187757,-0.0517 -0.172255,0 -0.258383,0.0551 -0.06718,0.0431 -0.10852,0.16192 z m 0.608059,0.36863 q -0.144694,0.0517 -0.301446,0.0913 -0.213596,0.0569 -0.27044,0.11197 -0.05857,0.0568 -0.05857,0.12919 0,0.0827 0.05684,0.13608 0.05857,0.0517 0.170532,0.0517 0.117133,0 0.217041,-0.0568 0.10163,-0.0568 0.142972,-0.1378 0.04306,-0.0827 0.04306,-0.2136 z"
         style="font-style:normal;font-variant:normal;font-weight:900;font-stretch:normal;font-size:3.52777791px;font-family:Arial;-inkscape-font-specification:'Arial Heavy';fill:#c8c8c8;fill-opacity:1;stroke-width:0.26458332"
         id="path5288"
         inkscape:connector-curvature="0" />
      <path
         d="m 16.532306,295.11641 0.742419,-0.0465 q 0.02411,0.18087 0.09819,0.27561 0.120578,0.1533 0.344509,0.1533 0.167087,0 0.25666,-0.0775 0.09129,-0.0792 0.09129,-0.18259 0,-0.0982 -0.08613,-0.1757 -0.08613,-0.0775 -0.399631,-0.14642 -0.51332,-0.11541 -0.732083,-0.30661 -0.220486,-0.1912 -0.220486,-0.48748 0,-0.19465 0.111965,-0.36691 0.113688,-0.17397 0.339342,-0.27216 0.227376,-0.0999 0.62184,-0.0999 0.484036,0 0.73725,0.18087 0.254937,0.17915 0.303169,0.57189 l -0.735528,0.0431 q -0.02928,-0.17053 -0.124024,-0.24805 -0.09302,-0.0775 -0.258382,-0.0775 -0.136081,0 -0.204983,0.0586 -0.0689,0.0568 -0.0689,0.13952 0,0.0603 0.05684,0.10852 0.05512,0.05 0.261827,0.093 0.511597,0.11024 0.732083,0.22393 0.222209,0.11197 0.322117,0.27906 0.10163,0.16708 0.10163,0.37379 0,0.24288 -0.134359,0.44786 -0.134358,0.20498 -0.375515,0.31178 -0.241157,0.10508 -0.608059,0.10508 -0.644233,0 -0.89228,-0.24805 -0.248047,-0.24805 -0.280776,-0.63045 z"
         style="font-style:normal;font-variant:normal;font-weight:900;font-stretch:normal;font-size:3.52777791px;font-family:Arial;-inkscape-font-specification:'Arial Heavy';fill:#c8c8c8;fill-opacity:1;stroke-width:0.26458332"
         id="path5290"
         inkscape:connector-curvature="0" />
      <path
         d="m 19.085122,295.04234 q 0,-0.41858 0.282498,-0.68902 0.282498,-0.27216 0.763089,-0.27216 0.549493,0 0.830268,0.31867 0.225654,0.25666 0.225654,0.63217 0,0.42203 -0.280776,0.69247 -0.279052,0.26871 -0.773424,0.26871 -0.440972,0 -0.713134,-0.22393 -0.334175,-0.27733 -0.334175,-0.72691 z m 0.7028,-0.002 q 0,0.2446 0.09819,0.36173 0.09991,0.11713 0.249769,0.11713 0.151585,0 0.248047,-0.11541 0.09819,-0.11541 0.09819,-0.37034 0,-0.23772 -0.09819,-0.35313 -0.09819,-0.11713 -0.242879,-0.11713 -0.153307,0 -0.253214,0.11886 -0.09991,0.11713 -0.09991,0.35829 z"
         style="font-style:normal;font-variant:normal;font-weight:900;font-stretch:normal;font-size:3.52777791px;font-family:Arial;-inkscape-font-specification:'Arial Heavy';fill:#c8c8c8;fill-opacity:1;stroke-width:0.26458332"
         id="path5292"
         inkscape:connector-curvature="0" />
      <path
         d="m 22.308009,294.1225 h 0.334174 v 0.51332 h -0.334174 v 1.31602 H 21.60521 v -1.31602 h -0.261828 v -0.51332 h 0.261828 v -0.0827 q 0,-0.11197 0.02412,-0.24633 0.02412,-0.13436 0.08957,-0.21876 0.06718,-0.0861 0.186035,-0.13781 0.120578,-0.0534 0.3514,-0.0534 0.184312,0 0.535712,0.0431 l -0.07752,0.42374 q -0.125746,-0.0207 -0.20326,-0.0207 -0.09474,0 -0.136081,0.0327 -0.04134,0.031 -0.05857,0.0999 -0.0086,0.0379 -0.0086,0.1602 z"
         style="font-style:normal;font-variant:normal;font-weight:900;font-stretch:normal;font-size:3.52777791px;font-family:Arial;-inkscape-font-specification:'Arial Heavy';fill:#c8c8c8;fill-opacity:1;stroke-width:0.26458332"
         id="path5294"
         inkscape:connector-curvature="0" />
      <path
         d="m 23.744615,293.42659 v 0.69591 h 0.385851 v 0.51159 h -0.385851 v 0.6494 q 0,0.11714 0.02239,0.15503 0.03445,0.0586 0.120579,0.0586 0.07751,0 0.217041,-0.0448 l 0.05168,0.48404 q -0.260105,0.0568 -0.485758,0.0568 -0.261828,0 -0.385851,-0.0672 -0.124024,-0.0672 -0.184313,-0.20327 -0.05857,-0.1378 -0.05857,-0.44441 v -0.64424 H 22.78343 v -0.51159 h 0.258383 v -0.3359 z"
         style="font-style:normal;font-variant:normal;font-weight:900;font-stretch:normal;font-size:3.52777791px;font-family:Arial;-inkscape-font-specification:'Arial Heavy';fill:#c8c8c8;fill-opacity:1;stroke-width:0.26458332"
         id="path5296"
         inkscape:connector-curvature="0" />
    </g>
    <path
       style="font-style:normal;font-variant:normal;font-weight:normal;font-stretch:normal;font-size:4.58611107px;line-height:1.25;font-family:Arial;-inkscape-font-specification:Arial;letter-spacing:0px;word-spacing:0px;fill:#c8c8c8;fill-opacity:1;stroke:none;stroke-width:0.26458332"
       d="m 11.794636,197.20246 c -0.409967,0 -0.729444,0.11449 -0.959115,0.34417 -0.229675,0.22967 -0.344684,0.55098 -0.344684,0.96324 0,0.29513 0.05817,0.54054 0.174152,0.73691 0.115982,0.19637 0.266649,0.34026 0.452683,0.43098 0.187185,0.0907 0.423175,0.13591 0.707971,0.13591 0.280196,0 0.514064,-0.0521 0.701248,-0.15658 0.188332,-0.10565 0.331705,-0.25298 0.430464,-0.44132 0.09991,-0.18948 0.149862,-0.43144 0.149862,-0.72657 0,-0.40652 -0.113688,-0.72266 -0.341064,-0.94774 -0.227377,-0.22623 -0.551217,-0.339 -0.971517,-0.339 z m 2.768306,0 c -0.262976,0 -0.470083,0.0331 -0.621667,0.0997 -0.150436,0.0654 -0.263722,0.15635 -0.339515,0.27233 -0.07464,0.11484 -0.112137,0.23714 -0.112137,0.3669 0,0.19752 0.07367,0.35984 0.220658,0.48731 0.145843,0.12747 0.390042,0.2295 0.732255,0.30644 0.209002,0.0459 0.342041,0.0951 0.399459,0.14676 0.05742,0.0517 0.0863,0.11025 0.0863,0.1757 0,0.0689 -0.0306,0.1296 -0.09147,0.18242 -0.05972,0.0517 -0.145441,0.0775 -0.256832,0.0775 -0.149287,0 -0.26378,-0.0513 -0.344165,-0.15348 -0.04938,-0.0632 -0.08211,-0.15486 -0.09819,-0.27544 l -0.74259,0.0465 c 0.02182,0.25494 0.115238,0.46509 0.280603,0.63045 0.165364,0.16537 0.462963,0.24805 0.892452,0.24805 0.244601,0 0.44746,-0.0349 0.608231,-0.1049 0.160771,-0.0712 0.285598,-0.17547 0.37517,-0.31213 0.08957,-0.13665 0.134359,-0.2856 0.134359,-0.44752 0,-0.1378 -0.03353,-0.26274 -0.101286,-0.37413 -0.0666,-0.11139 -0.174322,-0.20441 -0.322461,-0.27906 -0.146991,-0.0758 -0.390674,-0.15026 -0.731738,-0.22376 -0.137804,-0.0287 -0.225252,-0.0597 -0.261999,-0.093 -0.0379,-0.0322 -0.05684,-0.0683 -0.05684,-0.10852 0,-0.0551 0.02279,-0.10163 0.06873,-0.13953 0.04594,-0.039 0.114435,-0.0584 0.205156,-0.0584 0.110243,0 0.19637,0.0258 0.258382,0.0775 0.06316,0.0517 0.104501,0.13436 0.124023,0.24805 l 0.735357,-0.0434 c -0.03215,-0.26183 -0.132866,-0.45211 -0.302824,-0.57154 -0.16881,-0.12058 -0.414732,-0.18087 -0.737423,-0.18087 z m 2.702678,0 c -0.406522,0 -0.721346,0.11237 -0.944129,0.33745 -0.221634,0.22393 -0.332279,0.54472 -0.332279,0.96273 0,0.3135 0.06333,0.57108 0.189652,0.77205 0.12632,0.20096 0.276182,0.34129 0.449585,0.42168 0.174552,0.0792 0.398885,0.11885 0.673344,0.11885 0.226228,0 0.412263,-0.0327 0.558106,-0.0982 0.14699,-0.0655 0.269693,-0.16233 0.368452,-0.29094 0.09876,-0.12862 0.171107,-0.28882 0.217042,-0.48059 l -0.68368,-0.20671 c -0.03445,0.15962 -0.08997,0.28152 -0.166915,0.36535 -0.07579,0.0838 -0.188676,0.12558 -0.337963,0.12558 -0.153881,0 -0.273139,-0.0517 -0.358118,-0.15503 -0.08498,-0.1045 -0.127641,-0.29703 -0.127641,-0.57723 0,-0.22623 0.03577,-0.39199 0.10697,-0.49764 0.09417,-0.1424 0.229846,-0.21343 0.406694,-0.21343 0.07809,0 0.148713,0.0159 0.211873,0.0481 0.06316,0.0322 0.116559,0.0783 0.160197,0.13798 0.02641,0.0356 0.05133,0.0915 0.07545,0.16846 l 0.689361,-0.15296 c -0.08842,-0.26642 -0.224103,-0.46411 -0.406693,-0.59273 -0.181442,-0.12861 -0.43121,-0.19275 -0.749308,-0.19275 z m -5.472534,0.59066 c 0.164215,0 0.293809,0.0551 0.389123,0.16537 0.09646,0.10909 0.144694,0.28267 0.144694,0.52038 0,0.2825 -0.04559,0.47795 -0.137459,0.58704 -0.09187,0.1091 -0.22198,0.16382 -0.38964,0.16382 -0.163069,0 -0.29226,-0.0555 -0.387574,-0.16692 -0.09417,-0.11139 -0.141078,-0.2949 -0.141078,-0.54984 0,-0.25723 0.04783,-0.44154 0.143145,-0.55293 0.09531,-0.11139 0.221461,-0.16692 0.378789,-0.16692 z m -4.7816228,0.10697 c -0.213595,0 -0.388884,0.028 -0.525549,0.0842 -0.08613,0.0356 -0.17013,0.0903 -0.251664,0.16381 -0.08153,0.0724 -0.145669,0.15411 -0.192752,0.24598 -0.06431,0.12517 -0.09664,0.28192 -0.09664,0.47025 0,0.1803 0.02676,0.32499 0.07958,0.43409 0.05283,0.10909 0.125574,0.20475 0.218594,0.28628 0.09302,0.0804 0.20366,0.13896 0.332279,0.1757 0.129765,0.0356 0.291685,0.0532 0.485757,0.0532 0.200964,0 0.366329,-0.028 0.496094,-0.0842 0.130913,-0.0563 0.23863,-0.13511 0.32246,-0.23616 0.08383,-0.10221 0.144122,-0.22279 0.18087,-0.36174 l -0.666626,-0.076 c -0.03101,0.0976 -0.07844,0.16996 -0.141594,0.21704 -0.06201,0.0471 -0.138608,0.0708 -0.230476,0.0708 -0.110244,0 -0.201137,-0.0392 -0.272336,-0.11731 -0.0712,-0.0781 -0.106971,-0.19218 -0.106971,-0.34261 0,-0.16881 0.03577,-0.29456 0.106971,-0.37724 0.07235,-0.0838 0.166685,-0.12558 0.28267,-0.12558 0.09187,0 0.164619,0.0198 0.218591,0.0599 0.05512,0.039 0.09302,0.0976 0.113689,0.1757 l 0.659908,-0.0879 c -0.06316,-0.20556 -0.173403,-0.36139 -0.330729,-0.46819 -0.156179,-0.1068 -0.383554,-0.1602 -0.682131,-0.1602 z m 12.7465108,0 c -0.213596,0 -0.388377,0.028 -0.525033,0.0842 -0.08613,0.0356 -0.17013,0.0903 -0.251664,0.16381 -0.08153,0.0724 -0.14567,0.15411 -0.192753,0.24598 -0.06431,0.12517 -0.09664,0.28192 -0.09664,0.47025 0,0.1803 0.02624,0.32499 0.07906,0.43409 0.05283,0.10909 0.126091,0.20475 0.219108,0.28628 0.09302,0.0804 0.203663,0.13896 0.33228,0.1757 0.129765,0.0356 0.291684,0.0532 0.485758,0.0532 0.200964,0 0.366328,-0.028 0.496094,-0.0842 0.130913,-0.0563 0.238113,-0.13511 0.321944,-0.23616 0.08383,-0.10221 0.14412,-0.22279 0.180867,-0.36174 l -0.666625,-0.076 c -0.03101,0.0976 -0.07792,0.16996 -0.141077,0.21704 -0.06201,0.0471 -0.139125,0.0708 -0.230994,0.0708 -0.110243,0 -0.200619,-0.0392 -0.271818,-0.11731 -0.0712,-0.0781 -0.10697,-0.19218 -0.10697,-0.34261 0,-0.16881 0.03577,-0.29456 0.10697,-0.37724 0.07235,-0.0838 0.166169,-0.12558 0.282153,-0.12558 0.09187,0 0.165135,0.0198 0.219108,0.0599 0.05512,0.039 0.09302,0.0976 0.113689,0.1757 l 0.659391,-0.0879 c -0.06315,-0.20556 -0.173393,-0.36139 -0.330719,-0.46819 -0.156178,-0.1068 -0.383554,-0.1602 -0.682129,-0.1602 z m -11.5806898,0.0413 0.761711,1.82935 h 0.6216681 l 0.7766977,-1.82935 H 9.6293913 l -0.3669001,1.15911 -0.354502,-1.15911 z m 12.7470268,0 0.761194,1.82935 h 0.622184 l 0.776697,-1.82935 h -0.707967 l -0.366903,1.15911 -0.355017,-1.15911 z"
       id="text4544-0-6"
       inkscape:connector-curvature="0" />
  </g>
</svg>
