<?xml version="1.0" encoding="UTF-8" standalone="no"?>
<svg
   xmlns:dc="http://purl.org/dc/elements/1.1/"
   xmlns:cc="http://creativecommons.org/ns#"
   xmlns:rdf="http://www.w3.org/1999/02/22-rdf-syntax-ns#"
   xmlns:svg="http://www.w3.org/2000/svg"
   xmlns="http://www.w3.org/2000/svg"
   xmlns:sodipodi="http://sodipodi.sourceforge.net/DTD/sodipodi-0.dtd"
   xmlns:inkscape="http://www.inkscape.org/namespaces/inkscape"
   width="760"
   height="380"
   viewBox="0 0 201.08332 100.54167"
   version="1.1"
   id="svg4558"
   inkscape:version="1.0.1 (3bc2e813f5, 2020-09-07)"
   sodipodi:docname="cvOSC16.svg">
  <style
     id="style868"></style>
  <defs
     id="defs4552" />
  <sodipodi:namedview
     id="base"
     pagecolor="#ffffff"
     bordercolor="#666666"
     borderopacity="1.0"
     inkscape:pageopacity="0.0"
     inkscape:pageshadow="2"
     inkscape:zoom="8"
     inkscape:cx="34.483117"
     inkscape:cy="18.900695"
     inkscape:document-units="px"
     inkscape:current-layer="layer1"
     showgrid="false"
     units="px"
     inkscape:showpageshadow="false"
     inkscape:pagecheckerboard="false"
     inkscape:window-width="1920"
     inkscape:window-height="1001"
     inkscape:window-x="-9"
     inkscape:window-y="-9"
     inkscape:window-maximized="1"
     showguides="true"
     inkscape:guide-bbox="true"
     inkscape:document-rotation="0">
    <inkscape:grid
       type="xygrid"
       id="grid5103"
       units="px" />
    <sodipodi:guide
       position="5.2916666,124.41396"
       orientation="1,0"
       id="guide5208"
       inkscape:locked="false"
       inkscape:label=""
       inkscape:color="rgb(0,0,255)" />
  </sodipodi:namedview>
  <metadata
     id="metadata4555">
    <rdf:RDF>
      <cc:Work
         rdf:about="">
        <dc:format>image/svg+xml</dc:format>
        <dc:type
           rdf:resource="http://purl.org/dc/dcmitype/StillImage" />
        <dc:title />
      </cc:Work>
    </rdf:RDF>
  </metadata>
  <g
     inkscape:groupmode="layer"
     id="layer2"
     inkscape:label="Layer 2">
    <rect
       style="fill:#646464;fill-opacity:1;fill-rule:nonzero;stroke:none;stroke-width:0.26458332;stroke-linejoin:miter;stroke-miterlimit:4;stroke-dasharray:none;stroke-dashoffset:0;stroke-opacity:1"
       id="rect5123"
       width="201.08333"
       height="100.54166"
       x="0"
       y="5.3125e-008" />
    <path
       style="fill:none;stroke:#1e1e1e;stroke-width:0.26458332px;stroke-linecap:butt;stroke-linejoin:miter;stroke-opacity:1"
       d="m 0,3.96875 c 31.088542,0 201.08333,0 201.08333,0"
       id="path5125"
       inkscape:connector-curvature="0" />
    <path
       style="fill:none;stroke:#656565;stroke-width:0.26458332px;stroke-linecap:butt;stroke-linejoin:miter;stroke-opacity:1"
       d="m 0,96.572915 c 31.08854,0 201.08333,0 201.08333,0"
       id="path5125-2"
       inkscape:connector-curvature="0" />
    <text
       xml:space="preserve"
       style="font-style:normal;font-variant:normal;font-weight:normal;font-stretch:normal;font-size:4.58611px;line-height:1.25;font-family:Arial;-inkscape-font-specification:Arial;letter-spacing:0px;word-spacing:0px;fill:#c8c8c8;fill-opacity:1;stroke:none;stroke-width:0.264583"
       x="-32.496975"
       y="1.519068"
       id="text4544-0"><tspan
         sodipodi:role="line"
         id="tspan4542-4"
         x="-32.496975"
         y="1.519068"
         style="font-style:normal;font-variant:normal;font-weight:900;font-stretch:normal;font-size:3.52778px;font-family:Arial;-inkscape-font-specification:'Arial Heavy';fill:#c8c8c8;fill-opacity:1;stroke-width:0.264583">cvOSC16</tspan></text>
    <text
       xml:space="preserve"
       style="font-style:normal;font-variant:normal;font-weight:normal;font-stretch:normal;font-size:2.11667px;line-height:1.25;font-family:Arial;-inkscape-font-specification:Arial;letter-spacing:0px;word-spacing:0px;fill:#c8c8c8;fill-opacity:1;stroke:none;stroke-width:0.264583"
       x="-19.606899"
       y="98.23156"
       id="text4544-0-9"><tspan
         sodipodi:role="line"
         id="tspan4542-4-8"
         x="-19.606899"
         y="98.23156"
         style="font-style:normal;font-variant:normal;font-weight:900;font-stretch:normal;font-size:2.82222px;font-family:Arial;-inkscape-font-specification:'Arial Heavy';fill:#c8c8c8;fill-opacity:1;stroke-width:0.264583">trowaSoft</tspan></text>
  </g>
  <g
     inkscape:label="Layer 1"
     inkscape:groupmode="layer"
     id="layer1"
     transform="translate(0,-196.45832)"
     style="display:inline">
    <rect
       style="fill:#000000;fill-opacity:1;fill-rule:nonzero;stroke:none;stroke-width:0.26458332;stroke-linejoin:miter;stroke-miterlimit:4;stroke-dasharray:none;stroke-dashoffset:0;stroke-opacity:1"
       id="rect5105"
       width="201.08333"
       height="3.9687569"
       x="0"
       y="196.45831" />
    <rect
       style="fill:#000000;fill-opacity:0.93969852;fill-rule:nonzero;stroke:none;stroke-width:0.26458332;stroke-linejoin:miter;stroke-miterlimit:4;stroke-dasharray:none;stroke-dashoffset:0;stroke-opacity:1"
       id="rect5105-6"
       width="201.08333"
       height="3.9687569"
       x="-1.4210855e-014"
       y="293.03125" />
    <g
       transform="translate(-0.0940331,5.6510996)"
       aria-label="trowaSoft"
       style="font-style:normal;font-variant:normal;font-weight:normal;font-stretch:normal;font-size:4.58611107px;line-height:1.25;font-family:Arial;-inkscape-font-specification:Arial;letter-spacing:0px;word-spacing:0px;display:inline;fill:#c8c8c8;fill-opacity:1;stroke:none;stroke-width:0.26458332"
       id="text4544-0-8-0">
      <path
         d="m 6.3468814,293.42659 v 0.69591 h 0.3858507 v 0.51159 H 6.3468814 v 0.6494 q 0,0.11714 0.022393,0.15503 0.034451,0.0586 0.1205783,0.0586 0.077515,0 0.2170411,-0.0448 l 0.051676,0.48404 q -0.2601047,0.0568 -0.4857585,0.0568 -0.2618272,0 -0.3858507,-0.0672 -0.1240234,-0.0672 -0.1843126,-0.20327 -0.058567,-0.1378 -0.058567,-0.44441 v -0.64424 H 5.3856997 v -0.51159 h 0.2583822 v -0.3359 z"
         style="font-style:normal;font-variant:normal;font-weight:900;font-stretch:normal;font-size:3.52777791px;font-family:Arial;-inkscape-font-specification:'Arial Heavy';fill:#c8c8c8;fill-opacity:1;stroke-width:0.26458332"
         id="path5280-4"
         inkscape:connector-curvature="0" />
      <path
         d="m 7.072074,294.1225 h 0.6562908 v 0.29972 q 0.09474,-0.19465 0.1946479,-0.26699 0.1016303,-0.0741 0.2497694,-0.0741 0.1550293,0 0.3393419,0.0965 l -0.217041,0.49954 q -0.1240235,-0.0517 -0.1963705,-0.0517 -0.1378038,0 -0.2135959,0.11369 -0.1085205,0.1602 -0.1085205,0.59945 v 0.61322 H 7.072074 Z"
         style="font-style:normal;font-variant:normal;font-weight:900;font-stretch:normal;font-size:3.52777791px;font-family:Arial;-inkscape-font-specification:'Arial Heavy';fill:#c8c8c8;fill-opacity:1;stroke-width:0.26458332"
         id="path5282-6"
         inkscape:connector-curvature="0" />
      <path
         d="m 8.5982516,295.04234 q 0,-0.41858 0.2824978,-0.68902 0.2824978,-0.27216 0.7630887,-0.27216 0.5494929,0 0.8302679,0.31867 0.225654,0.25666 0.225654,0.63217 0,0.42203 -0.280775,0.69247 -0.279053,0.26871 -0.7734244,0.26871 -0.4409722,0 -0.7131348,-0.22393 -0.3341742,-0.27733 -0.3341742,-0.72691 z m 0.7027995,-0.002 q 0,0.2446 0.098185,0.36173 0.099908,0.11713 0.2497694,0.11713 0.1515842,0 0.2480469,-0.11541 0.098185,-0.11541 0.098185,-0.37034 0,-0.23772 -0.098185,-0.35313 -0.098185,-0.11713 -0.2428792,-0.11713 -0.1533068,0 -0.2532146,0.11886 -0.099908,0.11713 -0.099907,0.35829 z"
         style="font-style:normal;font-variant:normal;font-weight:900;font-stretch:normal;font-size:3.52777791px;font-family:Arial;-inkscape-font-specification:'Arial Heavy';fill:#c8c8c8;fill-opacity:1;stroke-width:0.26458332"
         id="path5284-9"
         inkscape:connector-curvature="0" />
      <path
         d="m 10.772107,294.1225 h 0.678684 l 0.294555,1.15238 0.372071,-1.15238 h 0.632175 l 0.38585,1.15238 0.294556,-1.15238 h 0.673516 l -0.673516,1.82934 h -0.623562 l -0.370348,-1.1007 -0.35829,1.1007 h -0.627007 z"
         style="font-style:normal;font-variant:normal;font-weight:900;font-stretch:normal;font-size:3.52777791px;font-family:Arial;-inkscape-font-specification:'Arial Heavy';fill:#c8c8c8;fill-opacity:1;stroke-width:0.26458332"
         id="path5286-9"
         inkscape:connector-curvature="0" />
      <path
         d="m 14.904499,294.71505 -0.670071,-0.0706 q 0.0379,-0.1757 0.10852,-0.27561 0.07235,-0.10163 0.206706,-0.1757 0.09646,-0.0534 0.265272,-0.0827 0.16881,-0.0293 0.365181,-0.0293 0.315226,0 0.506429,0.0362 0.191202,0.0344 0.318671,0.14642 0.08957,0.0775 0.141249,0.22048 0.05168,0.14125 0.05168,0.27044 v 0.80788 q 0,0.12919 0.0155,0.20326 0.01723,0.0724 0.07235,0.18603 h -0.658013 q -0.03962,-0.0706 -0.05168,-0.10679 -0.01206,-0.0379 -0.02412,-0.11714 -0.137804,0.13264 -0.273885,0.18948 -0.186035,0.0758 -0.43236,0.0758 -0.327284,0 -0.497816,-0.15158 -0.16881,-0.15158 -0.16881,-0.37379 0,-0.20843 0.122301,-0.34279 0.122301,-0.13436 0.451308,-0.19982 0.394463,-0.0792 0.511596,-0.11024 0.117134,-0.0327 0.248047,-0.0844 0,-0.12919 -0.0534,-0.18087 -0.0534,-0.0517 -0.187757,-0.0517 -0.172255,0 -0.258383,0.0551 -0.06718,0.0431 -0.10852,0.16192 z m 0.608059,0.36863 q -0.144694,0.0517 -0.301446,0.0913 -0.213596,0.0569 -0.27044,0.11197 -0.05857,0.0568 -0.05857,0.12919 0,0.0827 0.05684,0.13608 0.05857,0.0517 0.170532,0.0517 0.117133,0 0.217041,-0.0568 0.10163,-0.0568 0.142972,-0.1378 0.04306,-0.0827 0.04306,-0.2136 z"
         style="font-style:normal;font-variant:normal;font-weight:900;font-stretch:normal;font-size:3.52777791px;font-family:Arial;-inkscape-font-specification:'Arial Heavy';fill:#c8c8c8;fill-opacity:1;stroke-width:0.26458332"
         id="path5288-2"
         inkscape:connector-curvature="0" />
      <path
         d="m 16.532306,295.11641 0.742419,-0.0465 q 0.02411,0.18087 0.09819,0.27561 0.120578,0.1533 0.344509,0.1533 0.167087,0 0.25666,-0.0775 0.09129,-0.0792 0.09129,-0.18259 0,-0.0982 -0.08613,-0.1757 -0.08613,-0.0775 -0.399631,-0.14642 -0.51332,-0.11541 -0.732083,-0.30661 -0.220486,-0.1912 -0.220486,-0.48748 0,-0.19465 0.111965,-0.36691 0.113688,-0.17397 0.339342,-0.27216 0.227376,-0.0999 0.62184,-0.0999 0.484036,0 0.73725,0.18087 0.254937,0.17915 0.303169,0.57189 l -0.735528,0.0431 q -0.02928,-0.17053 -0.124024,-0.24805 -0.09302,-0.0775 -0.258382,-0.0775 -0.136081,0 -0.204983,0.0586 -0.0689,0.0568 -0.0689,0.13952 0,0.0603 0.05684,0.10852 0.05512,0.05 0.261827,0.093 0.511597,0.11024 0.732083,0.22393 0.222209,0.11197 0.322117,0.27906 0.10163,0.16708 0.10163,0.37379 0,0.24288 -0.134359,0.44786 -0.134358,0.20498 -0.375515,0.31178 -0.241157,0.10508 -0.608059,0.10508 -0.644233,0 -0.89228,-0.24805 -0.248047,-0.24805 -0.280776,-0.63045 z"
         style="font-style:normal;font-variant:normal;font-weight:900;font-stretch:normal;font-size:3.52777791px;font-family:Arial;-inkscape-font-specification:'Arial Heavy';fill:#c8c8c8;fill-opacity:1;stroke-width:0.26458332"
         id="path5290-3"
         inkscape:connector-curvature="0" />
      <path
         d="m 19.085122,295.04234 q 0,-0.41858 0.282498,-0.68902 0.282498,-0.27216 0.763089,-0.27216 0.549493,0 0.830268,0.31867 0.225654,0.25666 0.225654,0.63217 0,0.42203 -0.280776,0.69247 -0.279052,0.26871 -0.773424,0.26871 -0.440972,0 -0.713134,-0.22393 -0.334175,-0.27733 -0.334175,-0.72691 z m 0.7028,-0.002 q 0,0.2446 0.09819,0.36173 0.09991,0.11713 0.249769,0.11713 0.151585,0 0.248047,-0.11541 0.09819,-0.11541 0.09819,-0.37034 0,-0.23772 -0.09819,-0.35313 -0.09819,-0.11713 -0.242879,-0.11713 -0.153307,0 -0.253214,0.11886 -0.09991,0.11713 -0.09991,0.35829 z"
         style="font-style:normal;font-variant:normal;font-weight:900;font-stretch:normal;font-size:3.52777791px;font-family:Arial;-inkscape-font-specification:'Arial Heavy';fill:#c8c8c8;fill-opacity:1;stroke-width:0.26458332"
         id="path5292-6"
         inkscape:connector-curvature="0" />
      <path
         d="m 22.308009,294.1225 h 0.334174 v 0.51332 h -0.334174 v 1.31602 H 21.60521 v -1.31602 h -0.261828 v -0.51332 h 0.261828 v -0.0827 q 0,-0.11197 0.02412,-0.24633 0.02412,-0.13436 0.08957,-0.21876 0.06718,-0.0861 0.186035,-0.13781 0.120578,-0.0534 0.3514,-0.0534 0.184312,0 0.535712,0.0431 l -0.07752,0.42374 q -0.125746,-0.0207 -0.20326,-0.0207 -0.09474,0 -0.136081,0.0327 -0.04134,0.031 -0.05857,0.0999 -0.0086,0.0379 -0.0086,0.1602 z"
         style="font-style:normal;font-variant:normal;font-weight:900;font-stretch:normal;font-size:3.52777791px;font-family:Arial;-inkscape-font-specification:'Arial Heavy';fill:#c8c8c8;fill-opacity:1;stroke-width:0.26458332"
         id="path5294-8"
         inkscape:connector-curvature="0" />
      <path
         d="m 23.744615,293.42659 v 0.69591 h 0.385851 v 0.51159 h -0.385851 v 0.6494 q 0,0.11714 0.02239,0.15503 0.03445,0.0586 0.120579,0.0586 0.07751,0 0.217041,-0.0448 l 0.05168,0.48404 q -0.260105,0.0568 -0.485758,0.0568 -0.261828,0 -0.385851,-0.0672 -0.124024,-0.0672 -0.184313,-0.20327 -0.05857,-0.1378 -0.05857,-0.44441 v -0.64424 H 22.78343 v -0.51159 h 0.258383 v -0.3359 z"
         style="font-style:normal;font-variant:normal;font-weight:900;font-stretch:normal;font-size:3.52777791px;font-family:Arial;-inkscape-font-specification:'Arial Heavy';fill:#c8c8c8;fill-opacity:1;stroke-width:0.26458332"
         id="path5296-2"
         inkscape:connector-curvature="0" />
    </g>
    <g
       aria-label="trowaSoft"
       style="font-style:normal;font-variant:normal;font-weight:normal;font-stretch:normal;font-size:2.11666656px;line-height:1.25;font-family:Arial;-inkscape-font-specification:Arial;letter-spacing:0px;word-spacing:0px;fill:#c8c8c8;fill-opacity:1;stroke:none;stroke-width:0.26458332"
       id="text4544-0-9-0"
       transform="translate(23.482464,193.05181)">
      <path
         d="m -18.48018,101.05292 v 0.55672 h 0.30868 v 0.40928 h -0.30868 v 0.51952 q 0,0.0937 0.01791,0.12402 0.02756,0.0469 0.09646,0.0469 0.06201,0 0.173633,-0.0358 l 0.04134,0.38723 q -0.208084,0.0455 -0.388607,0.0455 -0.209462,0 -0.308681,-0.0537 -0.09922,-0.0537 -0.14745,-0.16261 -0.04685,-0.11024 -0.04685,-0.35553 v -0.51539 h -0.206706 v -0.40928 h 0.206706 v -0.26871 z"
         style="font-style:normal;font-variant:normal;font-weight:900;font-stretch:normal;font-size:2.82222223px;font-family:Arial;-inkscape-font-specification:'Arial Heavy';fill:#c8c8c8;fill-opacity:1;stroke-width:0.26458332"
         id="path200"
         inkscape:connector-curvature="0" />
      <path
         d="m -17.900026,101.60964 h 0.525032 v 0.23978 q 0.07579,-0.15572 0.155719,-0.21359 0.0813,-0.0593 0.199815,-0.0593 0.124024,0 0.271474,0.0772 l -0.173633,0.39963 q -0.09922,-0.0413 -0.157097,-0.0413 -0.110243,0 -0.170876,0.091 -0.08682,0.12816 -0.08682,0.47956 v 0.49058 h -0.563617 z"
         style="font-style:normal;font-variant:normal;font-weight:900;font-stretch:normal;font-size:2.82222223px;font-family:Arial;-inkscape-font-specification:'Arial Heavy';fill:#c8c8c8;fill-opacity:1;stroke-width:0.26458332"
         id="path202"
         inkscape:connector-curvature="0" />
      <path
         d="m -16.679084,102.34552 q 0,-0.33487 0.225998,-0.55122 0.225998,-0.21773 0.610471,-0.21773 0.439594,0 0.664214,0.25494 0.180523,0.20533 0.180523,0.50574 0,0.33762 -0.22462,0.55397 -0.223242,0.21497 -0.618739,0.21497 -0.352778,0 -0.570508,-0.17914 -0.267339,-0.22187 -0.267339,-0.58153 z m 0.562239,-10e-4 q 0,0.19568 0.07855,0.28939 0.07993,0.0937 0.199816,0.0937 0.121267,0 0.198437,-0.0923 0.07855,-0.0923 0.07855,-0.29627 0,-0.19017 -0.07855,-0.2825 -0.07855,-0.0937 -0.194303,-0.0937 -0.122645,0 -0.202572,0.0951 -0.07993,0.0937 -0.07993,0.28663 z"
         style="font-style:normal;font-variant:normal;font-weight:900;font-stretch:normal;font-size:2.82222223px;font-family:Arial;-inkscape-font-specification:'Arial Heavy';fill:#c8c8c8;fill-opacity:1;stroke-width:0.26458332"
         id="path204"
         inkscape:connector-curvature="0" />
      <path
         d="m -14.94,101.60964 h 0.542947 l 0.235644,0.92191 0.297657,-0.92191 h 0.50574 l 0.30868,0.92191 0.235645,-0.92191 h 0.538813 l -0.538813,1.46348 h -0.49885 l -0.296278,-0.88057 -0.286632,0.88057 h -0.501606 z"
         style="font-style:normal;font-variant:normal;font-weight:900;font-stretch:normal;font-size:2.82222223px;font-family:Arial;-inkscape-font-specification:'Arial Heavy';fill:#c8c8c8;fill-opacity:1;stroke-width:0.26458332"
         id="path206"
         inkscape:connector-curvature="0" />
      <path
         d="m -11.634087,102.08369 -0.536056,-0.0565 q 0.03032,-0.14056 0.08682,-0.22049 0.05788,-0.0813 0.165365,-0.14056 0.07717,-0.0427 0.212217,-0.0661 0.135048,-0.0234 0.292145,-0.0234 0.252181,0 0.405143,0.0289 0.152962,0.0276 0.254937,0.11713 0.07166,0.062 0.112999,0.17639 0.04134,0.113 0.04134,0.21635 v 0.6463 q 0,0.10336 0.0124,0.16261 0.01378,0.0579 0.05788,0.14883 h -0.526411 q -0.03169,-0.0565 -0.04134,-0.0854 -0.0096,-0.0303 -0.01929,-0.0937 -0.110243,0.1061 -0.219108,0.15158 -0.148828,0.0606 -0.345888,0.0606 -0.261827,0 -0.398253,-0.12126 -0.135048,-0.12127 -0.135048,-0.29904 0,-0.16674 0.09784,-0.27423 0.09784,-0.10749 0.361046,-0.15985 0.315571,-0.0634 0.409277,-0.0882 0.09371,-0.0262 0.198438,-0.0675 0,-0.10335 -0.04272,-0.14469 -0.04272,-0.0413 -0.150206,-0.0413 -0.137804,0 -0.206706,0.0441 -0.05374,0.0345 -0.08682,0.12954 z m 0.486448,0.2949 q -0.115755,0.0413 -0.241157,0.073 -0.170877,0.0455 -0.216352,0.0896 -0.04685,0.0455 -0.04685,0.10335 0,0.0662 0.04547,0.10887 0.04685,0.0413 0.136426,0.0413 0.09371,0 0.173633,-0.0455 0.0813,-0.0455 0.114377,-0.11024 0.03445,-0.0661 0.03445,-0.17088 z"
         style="font-style:normal;font-variant:normal;font-weight:900;font-stretch:normal;font-size:2.82222223px;font-family:Arial;-inkscape-font-specification:'Arial Heavy';fill:#c8c8c8;fill-opacity:1;stroke-width:0.26458332"
         id="path208"
         inkscape:connector-curvature="0" />
      <path
         d="m -10.331841,102.40477 0.5939344,-0.0372 q 0.019293,0.1447 0.078548,0.22049 0.096463,0.12265 0.2756076,0.12265 0.1336697,0 0.2053277,-0.062 0.073036,-0.0634 0.073036,-0.14607 0,-0.0786 -0.068902,-0.14056 -0.068902,-0.062 -0.3197048,-0.11713 -0.4106554,-0.0923 -0.5856659,-0.24529 -0.176389,-0.15296 -0.176389,-0.38999 0,-0.15571 0.08957,-0.29352 0.09095,-0.13918 0.2714727,-0.21773 0.1819011,-0.0799 0.4974718,-0.0799 0.3872288,0 0.5898004,0.14469 0.2039496,0.14332 0.2425347,0.45751 l -0.5884223,0.0344 q -0.023427,-0.13643 -0.099219,-0.19844 -0.074414,-0.062 -0.2067057,-0.062 -0.108865,0 -0.1639865,0.0468 -0.055122,0.0455 -0.055122,0.11162 0,0.0482 0.045475,0.0868 0.044097,0.04 0.2094618,0.0744 0.4092774,0.0882 0.5856662,0.17915 0.177767,0.0896 0.2576932,0.22324 0.081304,0.13367 0.081304,0.29904 0,0.1943 -0.1074869,0.35829 -0.107487,0.16398 -0.3004124,0.24942 -0.1929253,0.0841 -0.4864475,0.0841 -0.5153862,0 -0.7138235,-0.19844 -0.198437,-0.19843 -0.22462,-0.50436 z"
         style="font-style:normal;font-variant:normal;font-weight:900;font-stretch:normal;font-size:2.82222223px;font-family:Arial;-inkscape-font-specification:'Arial Heavy';fill:#c8c8c8;fill-opacity:1;stroke-width:0.26458332"
         id="path210"
         inkscape:connector-curvature="0" />
      <path
         d="m -8.2895876,102.34552 q 0,-0.33487 0.2259983,-0.55122 0.2259982,-0.21773 0.6104709,-0.21773 0.4395942,0 0.6642144,0.25494 0.180523,0.20533 0.180523,0.50574 0,0.33762 -0.2246202,0.55397 -0.2232422,0.21497 -0.6187392,0.21497 -0.3527778,0 -0.5705078,-0.17914 -0.2673394,-0.22187 -0.2673394,-0.58153 z m 0.5622396,-10e-4 q 0,0.19568 0.078548,0.28939 0.079926,0.0937 0.1998156,0.0937 0.1212673,0 0.1984375,-0.0923 0.078548,-0.0923 0.078548,-0.29627 0,-0.19017 -0.078548,-0.2825 -0.078548,-0.0937 -0.1943034,-0.0937 -0.1226454,0 -0.2025716,0.0951 -0.079926,0.0937 -0.079926,0.28663 z"
         style="font-style:normal;font-variant:normal;font-weight:900;font-stretch:normal;font-size:2.82222223px;font-family:Arial;-inkscape-font-specification:'Arial Heavy';fill:#c8c8c8;fill-opacity:1;stroke-width:0.26458332"
         id="path212"
         inkscape:connector-curvature="0" />
      <path
         d="m -5.7112787,101.60964 h 0.2673394 v 0.41066 h -0.2673394 v 1.05282 h -0.5622396 v -1.05282 h -0.2094618 v -0.41066 h 0.2094618 v -0.0661 q 0,-0.0896 0.019292,-0.19706 0.019293,-0.10749 0.071658,-0.17501 0.053744,-0.0689 0.1488281,-0.11025 0.096463,-0.0427 0.2811198,-0.0427 0.1474501,0 0.4285699,0.0345 l -0.062012,0.33899 q -0.1005968,-0.0165 -0.1626085,-0.0165 -0.075792,0 -0.108865,0.0262 -0.033073,0.0248 -0.046853,0.0799 -0.00689,0.0303 -0.00689,0.12815 z"
         style="font-style:normal;font-variant:normal;font-weight:900;font-stretch:normal;font-size:2.82222223px;font-family:Arial;-inkscape-font-specification:'Arial Heavy';fill:#c8c8c8;fill-opacity:1;stroke-width:0.26458332"
         id="path214"
         inkscape:connector-curvature="0" />
      <path
         d="m -4.5619942,101.05292 v 0.55672 h 0.3086805 v 0.40928 h -0.3086805 v 0.51952 q 0,0.0937 0.017914,0.12402 0.027561,0.0469 0.096463,0.0469 0.062012,0 0.1736328,-0.0358 l 0.041341,0.38723 q -0.2080837,0.0455 -0.3886068,0.0455 -0.2094618,0 -0.3086805,-0.0537 -0.099219,-0.0537 -0.1474501,-0.16261 -0.046853,-0.11024 -0.046853,-0.35553 v -0.51539 h -0.2067057 v -0.40928 h 0.2067057 v -0.26871 z"
         style="font-style:normal;font-variant:normal;font-weight:900;font-stretch:normal;font-size:2.82222223px;font-family:Arial;-inkscape-font-specification:'Arial Heavy';fill:#c8c8c8;fill-opacity:1;stroke-width:0.26458332"
         id="path216"
         inkscape:connector-curvature="0" />
    </g>
    <g
       aria-label="cvOSC16"
       id="text4544-0-0"
       style="font-style:normal;font-variant:normal;font-weight:normal;font-stretch:normal;font-size:4.5861px;line-height:1.25;font-family:Arial;-inkscape-font-specification:Arial;letter-spacing:0px;word-spacing:0px;fill:#c8c8c8;fill-opacity:1;stroke:none;stroke-width:0.264583">
      <path
         d="m 6.8090746,198.95653 0.6666245,0.0758 q -0.055121,0.20843 -0.1808671,0.36174 -0.1257457,0.15158 -0.3221157,0.23599 -0.1946475,0.0844 -0.4960927,0.0844 -0.2911099,0 -0.4857574,-0.0534 -0.1929249,-0.0551 -0.332451,-0.1757 -0.139526,-0.1223 -0.2187631,-0.28594 -0.079237,-0.16364 -0.079237,-0.43408 0,-0.2825 0.096463,-0.47026 0.070624,-0.1378 0.1929249,-0.24632 0.1223006,-0.11024 0.2514914,-0.16364 0.2049828,-0.0844 0.5253759,-0.0844 0.4478615,0 0.6821275,0.1602 0.2359885,0.1602 0.3307284,0.46853 l -0.6597343,0.0879 q -0.031006,-0.11713 -0.1136879,-0.1757 -0.08096,-0.0603 -0.2187631,-0.0603 -0.173977,0 -0.2824972,0.12575 -0.1067978,0.12402 -0.1067978,0.37724 0,0.22565 0.1067978,0.34278 0.1067977,0.11714 0.2721619,0.11714 0.1378035,0 0.2308209,-0.0706 0.09474,-0.0706 0.1412486,-0.21704 z"
         style="font-style:normal;font-variant:normal;font-weight:900;font-stretch:normal;font-size:3.52777px;font-family:Arial;-inkscape-font-specification:'Arial Heavy';fill:#c8c8c8;fill-opacity:1;stroke-width:0.264583"
         id="path903" />
      <path
         d="m 7.5893871,197.84205 h 0.7303587 l 0.354844,1.15927 0.3669019,-1.15927 h 0.7079656 l -0.7768674,1.82934 H 8.3507516 Z"
         style="font-style:normal;font-variant:normal;font-weight:900;font-stretch:normal;font-size:3.52777px;font-family:Arial;-inkscape-font-specification:'Arial Heavy';fill:#c8c8c8;fill-opacity:1;stroke-width:0.264583"
         id="path905" />
      <path
         d="m 9.9010408,198.41048 q 0,-0.61839 0.3445092,-0.9629 0.344508,-0.34451 0.959457,-0.34451 0.630451,0 0.971514,0.33934 0.341064,0.33762 0.341064,0.9474 0,0.4427 -0.149861,0.72692 -0.148139,0.28249 -0.430636,0.44097 -0.280775,0.15675 -0.701076,0.15675 -0.42719,0 -0.707965,-0.13608 -0.279052,-0.13608 -0.453029,-0.43064 -0.1739772,-0.29455 -0.1739772,-0.73725 z m 0.7803122,0.003 q 0,0.3824 0.141249,0.54949 0.142971,0.16709 0.387572,0.16709 0.251492,0 0.389295,-0.16364 0.137804,-0.16365 0.137804,-0.58739 0,-0.35657 -0.144694,-0.52021 -0.142971,-0.16536 -0.389295,-0.16536 -0.235988,0 -0.37896,0.16708 -0.142971,0.16709 -0.142971,0.55294 z"
         style="font-style:normal;font-variant:normal;font-weight:900;font-stretch:normal;font-size:3.52777px;font-family:Arial;-inkscape-font-specification:'Arial Heavy';fill:#c8c8c8;fill-opacity:1;stroke-width:0.264583"
         id="path907" />
      <path
         d="m 12.801805,198.83595 0.742416,-0.0465 q 0.02412,0.18087 0.09818,0.27561 0.120579,0.15331 0.344509,0.15331 0.167087,0 0.256659,-0.0775 0.09129,-0.0792 0.09129,-0.18259 0,-0.0982 -0.08613,-0.1757 -0.08613,-0.0775 -0.39963,-0.14641 -0.513318,-0.11541 -0.732081,-0.30662 -0.220486,-0.1912 -0.220486,-0.48747 0,-0.19465 0.111965,-0.36691 0.113688,-0.17397 0.339341,-0.27216 0.227376,-0.0999 0.621839,-0.0999 0.484035,0 0.737249,0.18087 0.254936,0.17915 0.303167,0.57189 l -0.735526,0.0431 q -0.02928,-0.17053 -0.124023,-0.24805 -0.09302,-0.0775 -0.258382,-0.0775 -0.136081,0 -0.204982,0.0586 -0.0689,0.0568 -0.0689,0.13953 0,0.0603 0.05684,0.10852 0.05512,0.0499 0.261826,0.093 0.511596,0.11024 0.732082,0.22393 0.222208,0.11196 0.322115,0.27905 0.10163,0.16709 0.10163,0.37379 0,0.24288 -0.134358,0.44786 -0.134358,0.20499 -0.375515,0.31179 -0.241156,0.10507 -0.608058,0.10507 -0.644231,0 -0.892277,-0.24805 -0.248047,-0.24804 -0.280775,-0.63045 z"
         style="font-style:normal;font-variant:normal;font-weight:900;font-stretch:normal;font-size:3.52777px;font-family:Arial;-inkscape-font-specification:'Arial Heavy';fill:#c8c8c8;fill-opacity:1;stroke-width:0.264583"
         id="path909" />
      <path
         d="m 17.166731,198.63958 0.68385,0.20671 q -0.0689,0.28766 -0.21704,0.48059 -0.148139,0.19292 -0.368625,0.29111 -0.218763,0.0982 -0.558104,0.0982 -0.411688,0 -0.673515,-0.11885 -0.260104,-0.12058 -0.449584,-0.42203 -0.18948,-0.30144 -0.18948,-0.7717 0,-0.627 0.332451,-0.9629 0.334174,-0.33762 0.943954,-0.33762 0.477145,0 0.749307,0.19293 0.273885,0.19292 0.40652,0.59255 l -0.689017,0.15331 q -0.03617,-0.11541 -0.07579,-0.16881 -0.06546,-0.0896 -0.160197,-0.1378 -0.09474,-0.0482 -0.211873,-0.0482 -0.265271,0 -0.40652,0.21359 -0.106798,0.15848 -0.106798,0.49782 0,0.4203 0.127469,0.57705 0.127468,0.15503 0.358289,0.15503 0.22393,0 0.337618,-0.12575 0.115411,-0.12574 0.167087,-0.36518 z"
         style="font-style:normal;font-variant:normal;font-weight:900;font-stretch:normal;font-size:3.52777px;font-family:Arial;-inkscape-font-specification:'Arial Heavy';fill:#c8c8c8;fill-opacity:1;stroke-width:0.264583"
         id="path911" />
      <path
         d="m 19.705761,197.10307 v 2.56832 h -0.709688 v -1.68293 q -0.172254,0.13091 -0.334173,0.21187 -0.160197,0.081 -0.403076,0.15503 v -0.57533 q 0.358289,-0.11541 0.556382,-0.27733 0.198093,-0.16192 0.310058,-0.39963 z"
         style="font-style:normal;font-variant:normal;font-weight:900;font-stretch:normal;font-size:3.52777px;font-family:Arial;-inkscape-font-specification:'Arial Heavy';fill:#c8c8c8;fill-opacity:1;stroke-width:0.264583"
         id="path913" />
      <path
         d="m 22.499727,197.71458 -0.69763,0.0861 q -0.02756,-0.14641 -0.09302,-0.2067 -0.06373,-0.0603 -0.158474,-0.0603 -0.170532,0 -0.265272,0.17225 -0.0689,0.12403 -0.10163,0.53055 0.125746,-0.12747 0.258381,-0.18776 0.132636,-0.062 0.306613,-0.062 0.337619,0 0.570162,0.24115 0.234266,0.24116 0.234266,0.61151 0,0.24977 -0.118855,0.45647 -0.117133,0.20671 -0.327284,0.31351 -0.208427,0.10507 -0.523653,0.10507 -0.37896,0 -0.608058,-0.12919 -0.229098,-0.12919 -0.366902,-0.41169 -0.136081,-0.28422 -0.136081,-0.75103 0,-0.68385 0.287665,-1.0008 0.287665,-0.31867 0.797538,-0.31867 0.301445,0 0.475422,0.0706 0.175699,0.0689 0.29111,0.20326 0.11541,0.13436 0.175699,0.33762 z m -1.291908,1.12482 q 0,0.20498 0.103353,0.32211 0.103353,0.11541 0.253214,0.11541 0.137804,0 0.230821,-0.10507 0.09302,-0.10508 0.09302,-0.3135 0,-0.2136 -0.09646,-0.32556 -0.09646,-0.11197 -0.239434,-0.11197 -0.146416,0 -0.246324,0.10852 -0.09819,0.10852 -0.09819,0.31006 z"
         style="font-style:normal;font-variant:normal;font-weight:900;font-stretch:normal;font-size:3.52777px;font-family:Arial;-inkscape-font-specification:'Arial Heavy';fill:#c8c8c8;fill-opacity:1;stroke-width:0.264583"
         id="path915" />
    </g>
  </g>
</svg>
