<?xml version="1.0" encoding="UTF-8" standalone="no"?>
<svg
   xmlns:dc="http://purl.org/dc/elements/1.1/"
   xmlns:cc="http://creativecommons.org/ns#"
   xmlns:rdf="http://www.w3.org/1999/02/22-rdf-syntax-ns#"
   xmlns:svg="http://www.w3.org/2000/svg"
   xmlns="http://www.w3.org/2000/svg"
   xmlns:sodipodi="http://sodipodi.sourceforge.net/DTD/sodipodi-0.dtd"
   xmlns:inkscape="http://www.inkscape.org/namespaces/inkscape"
   width="760"
   height="380"
   viewBox="0 0 201.08332 100.54167"
   version="1.1"
   id="svg4558"
   inkscape:version="1.0.1 (3bc2e813f5, 2020-09-07)"
   sodipodi:docname="polyGen.svg">
  <defs
     id="defs4552" />
  <sodipodi:namedview
     id="base"
     pagecolor="#ffffff"
     bordercolor="#666666"
     borderopacity="1.0"
     inkscape:pageopacity="0.0"
     inkscape:pageshadow="2"
     inkscape:zoom="1.4142136"
     inkscape:cx="143.72738"
     inkscape:cy="167.78438"
     inkscape:document-units="px"
     inkscape:current-layer="layer1"
     showgrid="false"
     units="px"
     inkscape:showpageshadow="false"
     inkscape:pagecheckerboard="false"
     inkscape:window-width="1920"
     inkscape:window-height="1001"
     inkscape:window-x="-9"
     inkscape:window-y="-9"
     inkscape:window-maximized="1"
     showguides="true"
     inkscape:guide-bbox="true"
     inkscape:document-rotation="0">
    <inkscape:grid
       type="xygrid"
       id="grid5103"
       units="px" />
    <sodipodi:guide
       position="5.2916666,124.41396"
       orientation="1,0"
       id="guide5208"
       inkscape:locked="false"
       inkscape:label=""
       inkscape:color="rgb(0,0,255)" />
  </sodipodi:namedview>
  <metadata
     id="metadata4555">
    <rdf:RDF>
      <cc:Work
         rdf:about="">
        <dc:format>image/svg+xml</dc:format>
        <dc:type
           rdf:resource="http://purl.org/dc/dcmitype/StillImage" />
        <dc:title />
      </cc:Work>
    </rdf:RDF>
  </metadata>
  <g
     inkscape:groupmode="layer"
     id="layer2"
     inkscape:label="Layer 2"
     style="display:inline">
    <rect
       style="fill:#646464;fill-opacity:1;fill-rule:nonzero;stroke:none;stroke-width:0.264583;stroke-linejoin:miter;stroke-miterlimit:4;stroke-dasharray:none;stroke-dashoffset:0;stroke-opacity:1"
       id="rect5123"
       width="201.08333"
       height="100.54166"
       x="0"
       y="5.3125e-08" />
    <path
       style="fill:none;stroke:#1e1e1e;stroke-width:0.264583px;stroke-linecap:butt;stroke-linejoin:miter;stroke-opacity:1"
       d="m 0,3.96875 c 31.088542,0 201.08333,0 201.08333,0"
       id="path5125"
       inkscape:connector-curvature="0" />
    <path
       style="fill:none;stroke:#656565;stroke-width:0.264583px;stroke-linecap:butt;stroke-linejoin:miter;stroke-opacity:1"
       d="m 0,96.572915 c 31.08854,0 201.08333,0 201.08333,0"
       id="path5125-2"
       inkscape:connector-curvature="0" />
    <text
       xml:space="preserve"
       style="font-style:normal;font-variant:normal;font-weight:normal;font-stretch:normal;font-size:4.58611px;line-height:1.25;font-family:Arial;-inkscape-font-specification:Arial;letter-spacing:0px;word-spacing:0px;fill:#c8c8c8;fill-opacity:1;stroke:none;stroke-width:0.264583"
       x="-32.496975"
       y="1.519068"
       id="text4544-0"><tspan
         sodipodi:role="line"
         id="tspan4542-4"
         x="-32.496975"
         y="1.519068"
         style="font-style:normal;font-variant:normal;font-weight:900;font-stretch:normal;font-size:3.52778px;font-family:Arial;-inkscape-font-specification:'Arial Heavy';fill:#c8c8c8;fill-opacity:1;stroke-width:0.264583">polyGen</tspan></text>
  </g>
  <g
     inkscape:label="Layer 1"
     inkscape:groupmode="layer"
     id="layer1"
     transform="translate(0,-196.45832)"
     style="display:inline">
    <rect
       style="fill:#000000;fill-opacity:1;fill-rule:nonzero;stroke:none;stroke-width:0.264583;stroke-linejoin:miter;stroke-miterlimit:4;stroke-dasharray:none;stroke-dashoffset:0;stroke-opacity:1"
       id="rect5105"
       width="201.08333"
       height="3.9687569"
       x="0"
       y="196.45831" />
    <rect
       style="fill:#000000;fill-opacity:0.939699;fill-rule:nonzero;stroke:none;stroke-width:0.264583;stroke-linejoin:miter;stroke-miterlimit:4;stroke-dasharray:none;stroke-dashoffset:0;stroke-opacity:1"
       id="rect5105-6"
       width="201.08333"
       height="3.9687569"
       x="-1.4210855e-14"
       y="293.03125" />
    <g
       aria-label="trowaSoft"
       style="font-style:normal;font-variant:normal;font-weight:normal;font-stretch:normal;font-size:4.58611px;line-height:1.25;font-family:Arial;-inkscape-font-specification:Arial;letter-spacing:0px;word-spacing:0px;fill:#c8c8c8;fill-opacity:1;stroke:none;stroke-width:0.264583"
       id="text4544-0-8">
      <path
         d="m 6.3468814,293.42659 v 0.69591 h 0.3858507 v 0.51159 H 6.3468814 v 0.6494 q 0,0.11714 0.022393,0.15503 0.034451,0.0586 0.1205783,0.0586 0.077515,0 0.2170411,-0.0448 l 0.051676,0.48404 q -0.2601047,0.0568 -0.4857585,0.0568 -0.2618272,0 -0.3858507,-0.0672 -0.1240234,-0.0672 -0.1843126,-0.20327 -0.058567,-0.1378 -0.058567,-0.44441 v -0.64424 H 5.3856997 v -0.51159 h 0.2583822 v -0.3359 z"
         style="font-style:normal;font-variant:normal;font-weight:900;font-stretch:normal;font-size:3.52778px;font-family:Arial;-inkscape-font-specification:'Arial Heavy';fill:#c8c8c8;fill-opacity:1;stroke-width:0.264583"
         id="path5280"
         inkscape:connector-curvature="0" />
      <path
         d="m 7.072074,294.1225 h 0.6562908 v 0.29972 q 0.09474,-0.19465 0.1946479,-0.26699 0.1016303,-0.0741 0.2497694,-0.0741 0.1550293,0 0.3393419,0.0965 l -0.217041,0.49954 q -0.1240235,-0.0517 -0.1963705,-0.0517 -0.1378038,0 -0.2135959,0.11369 -0.1085205,0.1602 -0.1085205,0.59945 v 0.61322 H 7.072074 Z"
         style="font-style:normal;font-variant:normal;font-weight:900;font-stretch:normal;font-size:3.52778px;font-family:Arial;-inkscape-font-specification:'Arial Heavy';fill:#c8c8c8;fill-opacity:1;stroke-width:0.264583"
         id="path5282"
         inkscape:connector-curvature="0" />
      <path
         d="m 8.5982516,295.04234 q 0,-0.41858 0.2824978,-0.68902 0.2824978,-0.27216 0.7630887,-0.27216 0.5494929,0 0.8302679,0.31867 0.225654,0.25666 0.225654,0.63217 0,0.42203 -0.280775,0.69247 -0.279053,0.26871 -0.7734244,0.26871 -0.4409722,0 -0.7131348,-0.22393 -0.3341742,-0.27733 -0.3341742,-0.72691 z m 0.7027995,-0.002 q 0,0.2446 0.098185,0.36173 0.099908,0.11713 0.2497694,0.11713 0.1515842,0 0.2480469,-0.11541 0.098185,-0.11541 0.098185,-0.37034 0,-0.23772 -0.098185,-0.35313 -0.098185,-0.11713 -0.2428792,-0.11713 -0.1533068,0 -0.2532146,0.11886 -0.099908,0.11713 -0.099907,0.35829 z"
         style="font-style:normal;font-variant:normal;font-weight:900;font-stretch:normal;font-size:3.52778px;font-family:Arial;-inkscape-font-specification:'Arial Heavy';fill:#c8c8c8;fill-opacity:1;stroke-width:0.264583"
         id="path5284"
         inkscape:connector-curvature="0" />
      <path
         d="m 10.772107,294.1225 h 0.678684 l 0.294555,1.15238 0.372071,-1.15238 h 0.632175 l 0.38585,1.15238 0.294556,-1.15238 h 0.673516 l -0.673516,1.82934 h -0.623562 l -0.370348,-1.1007 -0.35829,1.1007 h -0.627007 z"
         style="font-style:normal;font-variant:normal;font-weight:900;font-stretch:normal;font-size:3.52778px;font-family:Arial;-inkscape-font-specification:'Arial Heavy';fill:#c8c8c8;fill-opacity:1;stroke-width:0.264583"
         id="path5286"
         inkscape:connector-curvature="0" />
      <path
         d="m 14.904499,294.71505 -0.670071,-0.0706 q 0.0379,-0.1757 0.10852,-0.27561 0.07235,-0.10163 0.206706,-0.1757 0.09646,-0.0534 0.265272,-0.0827 0.16881,-0.0293 0.365181,-0.0293 0.315226,0 0.506429,0.0362 0.191202,0.0344 0.318671,0.14642 0.08957,0.0775 0.141249,0.22048 0.05168,0.14125 0.05168,0.27044 v 0.80788 q 0,0.12919 0.0155,0.20326 0.01723,0.0724 0.07235,0.18603 h -0.658013 q -0.03962,-0.0706 -0.05168,-0.10679 -0.01206,-0.0379 -0.02412,-0.11714 -0.137804,0.13264 -0.273885,0.18948 -0.186035,0.0758 -0.43236,0.0758 -0.327284,0 -0.497816,-0.15158 -0.16881,-0.15158 -0.16881,-0.37379 0,-0.20843 0.122301,-0.34279 0.122301,-0.13436 0.451308,-0.19982 0.394463,-0.0792 0.511596,-0.11024 0.117134,-0.0327 0.248047,-0.0844 0,-0.12919 -0.0534,-0.18087 -0.0534,-0.0517 -0.187757,-0.0517 -0.172255,0 -0.258383,0.0551 -0.06718,0.0431 -0.10852,0.16192 z m 0.608059,0.36863 q -0.144694,0.0517 -0.301446,0.0913 -0.213596,0.0569 -0.27044,0.11197 -0.05857,0.0568 -0.05857,0.12919 0,0.0827 0.05684,0.13608 0.05857,0.0517 0.170532,0.0517 0.117133,0 0.217041,-0.0568 0.10163,-0.0568 0.142972,-0.1378 0.04306,-0.0827 0.04306,-0.2136 z"
         style="font-style:normal;font-variant:normal;font-weight:900;font-stretch:normal;font-size:3.52778px;font-family:Arial;-inkscape-font-specification:'Arial Heavy';fill:#c8c8c8;fill-opacity:1;stroke-width:0.264583"
         id="path5288"
         inkscape:connector-curvature="0" />
      <path
         d="m 16.532306,295.11641 0.742419,-0.0465 q 0.02411,0.18087 0.09819,0.27561 0.120578,0.1533 0.344509,0.1533 0.167087,0 0.25666,-0.0775 0.09129,-0.0792 0.09129,-0.18259 0,-0.0982 -0.08613,-0.1757 -0.08613,-0.0775 -0.399631,-0.14642 -0.51332,-0.11541 -0.732083,-0.30661 -0.220486,-0.1912 -0.220486,-0.48748 0,-0.19465 0.111965,-0.36691 0.113688,-0.17397 0.339342,-0.27216 0.227376,-0.0999 0.62184,-0.0999 0.484036,0 0.73725,0.18087 0.254937,0.17915 0.303169,0.57189 l -0.735528,0.0431 q -0.02928,-0.17053 -0.124024,-0.24805 -0.09302,-0.0775 -0.258382,-0.0775 -0.136081,0 -0.204983,0.0586 -0.0689,0.0568 -0.0689,0.13952 0,0.0603 0.05684,0.10852 0.05512,0.05 0.261827,0.093 0.511597,0.11024 0.732083,0.22393 0.222209,0.11197 0.322117,0.27906 0.10163,0.16708 0.10163,0.37379 0,0.24288 -0.134359,0.44786 -0.134358,0.20498 -0.375515,0.31178 -0.241157,0.10508 -0.608059,0.10508 -0.644233,0 -0.89228,-0.24805 -0.248047,-0.24805 -0.280776,-0.63045 z"
         style="font-style:normal;font-variant:normal;font-weight:900;font-stretch:normal;font-size:3.52778px;font-family:Arial;-inkscape-font-specification:'Arial Heavy';fill:#c8c8c8;fill-opacity:1;stroke-width:0.264583"
         id="path5290"
         inkscape:connector-curvature="0" />
      <path
         d="m 19.085122,295.04234 q 0,-0.41858 0.282498,-0.68902 0.282498,-0.27216 0.763089,-0.27216 0.549493,0 0.830268,0.31867 0.225654,0.25666 0.225654,0.63217 0,0.42203 -0.280776,0.69247 -0.279052,0.26871 -0.773424,0.26871 -0.440972,0 -0.713134,-0.22393 -0.334175,-0.27733 -0.334175,-0.72691 z m 0.7028,-0.002 q 0,0.2446 0.09819,0.36173 0.09991,0.11713 0.249769,0.11713 0.151585,0 0.248047,-0.11541 0.09819,-0.11541 0.09819,-0.37034 0,-0.23772 -0.09819,-0.35313 -0.09819,-0.11713 -0.242879,-0.11713 -0.153307,0 -0.253214,0.11886 -0.09991,0.11713 -0.09991,0.35829 z"
         style="font-style:normal;font-variant:normal;font-weight:900;font-stretch:normal;font-size:3.52778px;font-family:Arial;-inkscape-font-specification:'Arial Heavy';fill:#c8c8c8;fill-opacity:1;stroke-width:0.264583"
         id="path5292"
         inkscape:connector-curvature="0" />
      <path
         d="m 22.308009,294.1225 h 0.334174 v 0.51332 h -0.334174 v 1.31602 H 21.60521 v -1.31602 h -0.261828 v -0.51332 h 0.261828 v -0.0827 q 0,-0.11197 0.02412,-0.24633 0.02412,-0.13436 0.08957,-0.21876 0.06718,-0.0861 0.186035,-0.13781 0.120578,-0.0534 0.3514,-0.0534 0.184312,0 0.535712,0.0431 l -0.07752,0.42374 q -0.125746,-0.0207 -0.20326,-0.0207 -0.09474,0 -0.136081,0.0327 -0.04134,0.031 -0.05857,0.0999 -0.0086,0.0379 -0.0086,0.1602 z"
         style="font-style:normal;font-variant:normal;font-weight:900;font-stretch:normal;font-size:3.52778px;font-family:Arial;-inkscape-font-specification:'Arial Heavy';fill:#c8c8c8;fill-opacity:1;stroke-width:0.264583"
         id="path5294"
         inkscape:connector-curvature="0" />
      <path
         d="m 23.744615,293.42659 v 0.69591 h 0.385851 v 0.51159 h -0.385851 v 0.6494 q 0,0.11714 0.02239,0.15503 0.03445,0.0586 0.120579,0.0586 0.07751,0 0.217041,-0.0448 l 0.05168,0.48404 q -0.260105,0.0568 -0.485758,0.0568 -0.261828,0 -0.385851,-0.0672 -0.124024,-0.0672 -0.184313,-0.20327 -0.05857,-0.1378 -0.05857,-0.44441 v -0.64424 H 22.78343 v -0.51159 h 0.258383 v -0.3359 z"
         style="font-style:normal;font-variant:normal;font-weight:900;font-stretch:normal;font-size:3.52778px;font-family:Arial;-inkscape-font-specification:'Arial Heavy';fill:#c8c8c8;fill-opacity:1;stroke-width:0.264583"
         id="path5296"
         inkscape:connector-curvature="0" />
    </g>
    <text
       xml:space="preserve"
       style="font-style:normal;font-variant:normal;font-weight:normal;font-stretch:normal;font-size:4.5861px;line-height:1.25;font-family:Arial;-inkscape-font-specification:Arial;letter-spacing:0px;word-spacing:0px;fill:#c8c8c8;fill-opacity:1;stroke:none;stroke-width:0.264583"
       x="5.0345087"
       y="199.42924"
       id="textModuleName_TextObj"
       inkscape:label="#textModuleName_TextObj"><tspan
         sodipodi:role="line"
         id="tspan4542-4-6"
         x="5.0345087"
         y="199.42924"
         style="font-style:normal;font-variant:normal;font-weight:900;font-stretch:normal;font-size:3.52777px;font-family:Arial;-inkscape-font-specification:'Arial Heavy';fill:#c8c8c8;fill-opacity:1;stroke-width:0.264583">polyGen</tspan></text>
    <g
       aria-label="polyGen"
       id="textPath_polyGen"
       style="font-style:normal;font-variant:normal;font-weight:normal;font-stretch:normal;font-size:4.5861px;line-height:1.25;font-family:Arial;-inkscape-font-specification:Arial;letter-spacing:0px;word-spacing:0px;fill:#c8c8c8;fill-opacity:1;stroke:none;stroke-width:0.264583"
       inkscape:label="#textPath_polyGen">
      <path
         d="m 5.404815,200.12515 v -2.52525 h 0.6562892 v 0.27044 q 0.136081,-0.17053 0.2497689,-0.23082 0.1533064,-0.081 0.3393412,-0.081 0.3669018,0 0.5667169,0.28078 0.2015377,0.28077 0.2015377,0.69418 0,0.45648 -0.2187631,0.69763 -0.2187631,0.23944 -0.5529366,0.23944 -0.1619191,0 -0.2962776,-0.0551 -0.1326359,-0.0551 -0.237711,-0.16364 v 0.87333 z m 0.7027979,-1.60541 q 0,0.21704 0.091295,0.32212 0.091295,0.10507 0.2308208,0.10507 0.1223007,0 0.2049828,-0.0999 0.082682,-0.10163 0.082682,-0.34279 0,-0.22221 -0.086127,-0.32556 -0.086127,-0.10508 -0.2101504,-0.10508 -0.1343584,0 -0.2239307,0.10508 -0.089572,0.10507 -0.089572,0.34106 z"
         style="font-style:normal;font-variant:normal;font-weight:900;font-stretch:normal;font-size:3.52777px;font-family:Arial;-inkscape-font-specification:'Arial Heavy';fill:#c8c8c8;fill-opacity:1;stroke-width:0.264583"
         id="path39" />
      <path
         d="m 7.6682379,198.51974 q 0,-0.41858 0.2824972,-0.68902 0.2824972,-0.27216 0.7630869,-0.27216 0.5494916,0 0.8302662,0.31867 0.2256533,0.25666 0.2256533,0.63218 0,0.42202 -0.2807747,0.69246 -0.2790521,0.26872 -0.7734222,0.26872 -0.4409713,0 -0.7131332,-0.22393 -0.3341735,-0.27733 -0.3341735,-0.72692 z m 0.7027979,-0.002 q 0,0.2446 0.098185,0.36173 0.099908,0.11714 0.2497689,0.11714 0.1515838,0 0.2480463,-0.11541 0.098185,-0.11541 0.098185,-0.37035 0,-0.23771 -0.098185,-0.35312 -0.098185,-0.11714 -0.2428787,-0.11714 -0.1533064,0 -0.253214,0.11886 -0.099908,0.11713 -0.099908,0.35829 z"
         style="font-style:normal;font-variant:normal;font-weight:900;font-stretch:normal;font-size:3.52777px;font-family:Arial;-inkscape-font-specification:'Arial Heavy';fill:#c8c8c8;fill-opacity:1;stroke-width:0.264583"
         id="path41" />
      <path
         d="m 10.131476,196.904 h 0.702798 v 2.52524 h -0.702798 z"
         style="font-style:normal;font-variant:normal;font-weight:900;font-stretch:normal;font-size:3.52777px;font-family:Arial;-inkscape-font-specification:'Arial Heavy';fill:#c8c8c8;fill-opacity:1;stroke-width:0.264583"
         id="path43" />
      <path
         d="m 11.139164,197.5999 h 0.740694 l 0.377237,1.21784 0.349677,-1.21784 h 0.69074 l -0.725191,1.95509 q -0.124024,0.33417 -0.253214,0.45131 -0.18259,0.16536 -0.556382,0.16536 -0.151584,0 -0.468532,-0.0413 l -0.05512,-0.4892 q 0.151583,0.0482 0.337618,0.0482 0.124023,0 0.199815,-0.0568 0.07752,-0.0568 0.130914,-0.20327 z"
         style="font-style:normal;font-variant:normal;font-weight:900;font-stretch:normal;font-size:3.52777px;font-family:Arial;-inkscape-font-specification:'Arial Heavy';fill:#c8c8c8;fill-opacity:1;stroke-width:0.264583"
         id="path45" />
      <path
         d="m 14.81335,198.51457 v -0.52537 h 1.205781 v 1.07659 q -0.346231,0.23599 -0.613226,0.32211 -0.265271,0.0844 -0.630451,0.0844 -0.449584,0 -0.733803,-0.15331 -0.282498,-0.1533 -0.439249,-0.45647 -0.155029,-0.30317 -0.155029,-0.69591 0,-0.41341 0.170532,-0.7183 0.170532,-0.30661 0.499538,-0.46509 0.256659,-0.1223 0.69074,-0.1223 0.418578,0 0.625283,0.0758 0.208428,0.0758 0.344509,0.23599 0.137803,0.15848 0.206705,0.40308 l -0.752752,0.13436 q -0.04651,-0.14298 -0.158474,-0.21877 -0.110242,-0.0758 -0.282497,-0.0758 -0.256659,0 -0.409965,0.17915 -0.151584,0.17742 -0.151584,0.56327 0,0.40996 0.153306,0.58566 0.155029,0.1757 0.430636,0.1757 0.130914,0 0.249769,-0.0379 0.118856,-0.0379 0.272162,-0.12919 v -0.23772 z"
         style="font-style:normal;font-variant:normal;font-weight:900;font-stretch:normal;font-size:3.52777px;font-family:Arial;-inkscape-font-specification:'Arial Heavy';fill:#c8c8c8;fill-opacity:1;stroke-width:0.264583"
         id="path47" />
      <path
         d="M 18.466866,198.68855 H 17.06127 q 0.01895,0.16881 0.09129,0.25149 0.10163,0.11886 0.265271,0.11886 0.103353,0 0.19637,-0.0517 0.05684,-0.0327 0.122301,-0.11541 l 0.69074,0.0637 q -0.158474,0.2756 -0.382405,0.39618 -0.22393,0.11886 -0.642508,0.11886 -0.363457,0 -0.571885,-0.10163 -0.208428,-0.10336 -0.346231,-0.32556 -0.136081,-0.22394 -0.136081,-0.52538 0,-0.42891 0.273884,-0.69419 0.275607,-0.26527 0.759642,-0.26527 0.39274,0 0.620116,0.11886 0.227376,0.11885 0.346231,0.34451 0.118856,0.22565 0.118856,0.58738 z m -0.713133,-0.33589 q -0.02067,-0.20327 -0.110243,-0.29111 -0.08785,-0.0879 -0.232544,-0.0879 -0.167087,0 -0.266994,0.13263 -0.06373,0.0827 -0.08096,0.24633 z"
         style="font-style:normal;font-variant:normal;font-weight:900;font-stretch:normal;font-size:3.52777px;font-family:Arial;-inkscape-font-specification:'Arial Heavy';fill:#c8c8c8;fill-opacity:1;stroke-width:0.264583"
         id="path49" />
      <path
         d="m 18.788981,197.5999 h 0.652844 v 0.298 q 0.146417,-0.18259 0.296278,-0.2601 0.149861,-0.0792 0.365179,-0.0792 0.29111,0 0.454752,0.17398 0.165364,0.17225 0.165364,0.53399 v 1.16271 h -0.70452 v -1.00596 q 0,-0.17226 -0.06373,-0.24288 -0.06374,-0.0724 -0.179145,-0.0724 -0.127468,0 -0.206705,0.0965 -0.07924,0.0965 -0.07924,0.34623 v 0.87849 h -0.701076 z"
         style="font-style:normal;font-variant:normal;font-weight:900;font-stretch:normal;font-size:3.52777px;font-family:Arial;-inkscape-font-specification:'Arial Heavy';fill:#c8c8c8;fill-opacity:1;stroke-width:0.264583"
         id="path51" />
    </g>
  </g>
</svg>
