<?xml version="1.0" encoding="UTF-8" standalone="no"?>
<svg
   xmlns:dc="http://purl.org/dc/elements/1.1/"
   xmlns:cc="http://creativecommons.org/ns#"
   xmlns:rdf="http://www.w3.org/1999/02/22-rdf-syntax-ns#"
   xmlns:svg="http://www.w3.org/2000/svg"
   xmlns="http://www.w3.org/2000/svg"
   xmlns:sodipodi="http://sodipodi.sourceforge.net/DTD/sodipodi-0.dtd"
   xmlns:inkscape="http://www.inkscape.org/namespaces/inkscape"
   version="1.0"
   id="svg111794"
   x="0px"
   y="0px"
   width="20"
   height="20"
   viewBox="0 0 20.000001 20"
   enable-background="new 0 0 22.67578 22.67581"
   xml:space="preserve"
   sodipodi:docname="RoundSmallBlackKnob_20_bg.svg"
   inkscape:version="1.0.1 (3bc2e813f5, 2020-09-07)"><style
   id="style859"></style><metadata
   id="metadata34"><rdf:RDF><cc:Work
       rdf:about=""><dc:format>image/svg+xml</dc:format><dc:type
         rdf:resource="http://purl.org/dc/dcmitype/StillImage" /><dc:title></dc:title></cc:Work></rdf:RDF></metadata><defs
   id="defs32" />
<sodipodi:namedview
   bordercolor="#666666"
   borderopacity="1.0"
   fit-margin-bottom="0"
   fit-margin-left="0"
   fit-margin-right="0"
   fit-margin-top="0"
   id="base"
   inkscape:current-layer="svg111794"
   inkscape:cx="-89.266987"
   inkscape:cy="-72.370678"
   inkscape:document-units="mm"
   inkscape:pageopacity="0.0"
   inkscape:pageshadow="2"
   inkscape:window-height="1033"
   inkscape:window-maximized="0"
   inkscape:window-width="1902"
   inkscape:window-x="0"
   inkscape:window-y="0"
   inkscape:zoom="2.8"
   pagecolor="#ffffff"
   showgrid="false"
   inkscape:document-rotation="0">
	</sodipodi:namedview>
<g
   id="g29"
   transform="matrix(0.88199755,0,0,0.88199755,-8.0244604e-4,0.00797315)">
	<linearGradient
   id="SVGID_1_"
   gradientUnits="userSpaceOnUse"
   x1="11.33881"
   y1="-0.0090399999"
   x2="11.33881"
   y2="22.666759">
		<stop
   offset="0"
   style="stop-color:#B0ACAE"
   id="stop3" />
		<stop
   offset="1"
   style="stop-color:#000000"
   id="stop5" />
	</linearGradient>
	<circle
   fill="url(#SVGID_1_)"
   cx="11.33881"
   cy="11.32886"
   r="11.3379"
   id="circle8"
   style="fill:url(#SVGID_1_)" />
	<path
   fill="#ffffff"
   d="M 11.33694,11.32646 8.40317,0.37749 C 7.44633,0.63387 6.52722,1.01458 5.66934,1.50988 4.81146,2.00518 4.0222,2.6108 3.32174,3.31126 Z"
   id="path10" />
	<path
   opacity="0.25"
   fill="#ffffff"
   d="m 11.33883,11.32884 2.49209,9.29166 c 0.81279,-0.21758 1.59353,-0.54066 2.32225,-0.96099 0.72872,-0.42032 1.39916,-0.93428 1.99416,-1.52871 z"
   id="path12" />
	
		<linearGradient
   id="SVGID_2_"
   gradientUnits="userSpaceOnUse"
   x1="4.5368199"
   y1="-4120.5469"
   x2="22.556919"
   y2="-4120.5469"
   gradientTransform="rotate(90,-2053.495,-2055.713)">
		<stop
   offset="0"
   style="stop-color:#232223"
   id="stop14" />
		<stop
   offset="1"
   style="stop-color:#1F1E1F"
   id="stop16" />
	</linearGradient>
	<ellipse
   fill="url(#SVGID_2_)"
   cx="11.33881"
   cy="11.32886"
   rx="9.0273705"
   ry="9.0100498"
   id="ellipse19"
   style="fill:url(#SVGID_2_)" />
	<path
   opacity="0.5"
   d="M 11.33704,11.32886 19.149,15.8391 c 0.79165,-1.37118 1.20852,-2.92693 1.20852,-4.51024 0,-1.58331 -0.41686,-3.13905 -1.20852,-4.51024 z"
   id="path21" />
	<path
   opacity="0.5"
   d="M 11.33705,11.32886 3.52509,6.81862 C 2.73343,8.1898 2.31657,9.74555 2.31657,11.32886 c 0,1.58331 0.41686,3.13906 1.20852,4.51024 z"
   id="path23" />
	<path
   opacity="0.1"
   fill="#ffffff"
   d="m 11.337,11.32653 2.33381,8.70152 c 0.76116,-0.20376 1.49232,-0.50632 2.17476,-0.89995 0.68244,-0.39363 1.3103,-0.87494 1.86751,-1.43161 z"
   id="path25" />
	<path
   opacity="0.1"
   fill="#ffffff"
   d="M 11.33704,11.32658 8.99926,2.60187 C 8.2368,2.80617 7.5044,3.10954 6.82079,3.50422 6.13718,3.8989 5.50826,4.38149 4.9501,4.93965 Z"
   id="path27" />
</g>
</svg>
