<?xml version="1.0" encoding="UTF-8" standalone="no"?>
<svg
   xmlns:dc="http://purl.org/dc/elements/1.1/"
   xmlns:cc="http://creativecommons.org/ns#"
   xmlns:rdf="http://www.w3.org/1999/02/22-rdf-syntax-ns#"
   xmlns:svg="http://www.w3.org/2000/svg"
   xmlns="http://www.w3.org/2000/svg"
   xmlns:sodipodi="http://sodipodi.sourceforge.net/DTD/sodipodi-0.dtd"
   xmlns:inkscape="http://www.inkscape.org/namespaces/inkscape"
   version="1.0"
   id="svg111794"
   x="0px"
   y="0px"
   width="20"
   height="19.99999"
   viewBox="0 0 20.000001 19.999991"
   enable-background="new 0 0 22.67578 22.67581"
   xml:space="preserve"
   sodipodi:docname="RoundSmallBlackKnob_20.svg"
   inkscape:version="1.0.1 (3bc2e813f5, 2020-09-07)"><style
   id="style845"></style><metadata
   id="metadata20"><rdf:RDF><cc:Work
       rdf:about=""><dc:format>image/svg+xml</dc:format><dc:type
         rdf:resource="http://purl.org/dc/dcmitype/StillImage" /><dc:title></dc:title></cc:Work></rdf:RDF></metadata><defs
   id="defs18" />
<sodipodi:namedview
   bordercolor="#666666"
   borderopacity="1.0"
   fit-margin-bottom="0"
   fit-margin-left="0"
   fit-margin-right="0"
   fit-margin-top="0"
   id="base"
   inkscape:current-layer="svg111794"
   inkscape:cx="0.55536186"
   inkscape:cy="8.6917014"
   inkscape:document-units="mm"
   inkscape:pageopacity="0.0"
   inkscape:pageshadow="2"
   inkscape:window-height="1033"
   inkscape:window-maximized="0"
   inkscape:window-width="1902"
   inkscape:window-x="0"
   inkscape:window-y="0"
   inkscape:zoom="15.839192"
   pagecolor="#ffffff"
   showgrid="false"
   inkscape:document-rotation="0">
	</sodipodi:namedview>
<g
   id="g15"
   transform="matrix(0.88199756,0,0,0.88199756,8.8199756e-6,-8.8199754e-6)">
	<path
   opacity="0.4"
   enable-background="new    "
   d="M 12.21259,0.01844 V 1.02205 C 11.92351,0.9977 11.63323,0.97781 11.33789,0.97781 c -0.29365,0 -0.58225,0.01989 -0.86965,0.04388 V 0.01808 C 4.6154,0.46528 -1e-5,5.34337 -1e-5,11.32006 c 0,6.27153 5.07611,11.35574 11.3379,11.35574 6.26179,0 11.3379,-5.08422 11.3379,-11.35574 0,-5.97488 -4.61276,-10.85201 -10.4632,-11.30162 z m -0.8747,1.68224 c 0.29534,0 0.5861,0.01808 0.8747,0.04412 v 0.60764 c 4.57329,0.44153 8.15273,4.27998 8.15273,8.96762 0,4.98393 -4.04182,9.02428 -9.02743,9.02428 -4.98572,0 -9.02743,-4.04035 -9.02743,-9.02428 0,-4.68933 3.58209,-8.52898 8.15778,-8.96823 V 1.74456 c 0.28692,-0.0258 0.576,-0.04388 0.86965,-0.04388 z"
   id="path3" />
	<path
   opacity="0.82"
   fill="#1e1d1e"
   enable-background="new    "
   d="m 11.33786,0.97781 c -5.71387,0 -10.34581,4.63043 -10.34581,10.34224 0,5.71181 4.63195,10.34224 10.34581,10.34224 5.71367,0 10.34581,-4.63043 10.34581,-10.34224 0,-5.71181 -4.63214,-10.34224 -10.34581,-10.34224 z m 0,19.96164 c -5.31449,0 -9.62265,-4.30681 -9.62265,-9.6194 0,-5.31259 4.30815,-9.6194 9.62265,-9.6194 5.3144,0 9.62265,4.30681 9.62265,9.6194 0,5.31259 -4.30825,9.6194 -9.62265,9.6194 z"
   id="path5" />
	<path
   fill="#ededed"
   d="M 12.21262,2.32235 H 10.4683 v 8.35055 c 0,0.28613 0.23196,0.51809 0.51809,0.51809 h 0.70814 c 0.28613,0 0.51809,-0.23196 0.51809,-0.51809 V 2.32235 Z"
   id="path7" />
	<rect
   x="10.46832"
   y="9.9999997e-06"
   opacity="0.71"
   fill="#ffffff"
   enable-background="new    "
   width="1.74432"
   height="0.97781003"
   id="rect9" />
	<rect
   x="10.46833"
   y="0.97781998"
   fill="#d9d9d9"
   width="1.74432"
   height="0.72286999"
   id="rect11" />
	<rect
   x="10.46832"
   y="1.70068"
   opacity="0.71"
   fill="#ffffff"
   enable-background="new    "
   width="1.74432"
   height="0.62165999"
   id="rect13" />
</g>
</svg>
